<svg xmlns="http://www.w3.org/2000/svg" xmlns:xlink="http://www.w3.org/1999/xlink" viewBox="0 0 889.12 448.37"><defs><style>.cls-1{fill:none;}.cls-2{isolation:isolate;}.cls-3{mix-blend-mode:multiply;}.cls-4{clip-path:url(#clip-path);}.cls-5{fill:#db93a8;}</style><clipPath id="clip-path" transform="translate(0)"><rect class="cls-1" width="889.13" height="448.37"/></clipPath></defs><title>Recurso 2</title><g class="cls-2"><g id="Capa_2" data-name="Capa 2"><g id="Capa_1-2" data-name="Capa 1"><g class="cls-3"><g class="cls-4"><path class="cls-5" d="M349.67,447.73C341.09,395.46,327.92,205.9,327.11,151l-.06-4.84c-.18-14.54-.38-29.58-3.06-43.45-2.58-13.31-8.88-29.11-18.83-33.56-11.49-5.12-23,6.36-30,18.81-9,16.18-14.09,36.87-18.23,56.81-16.41,79.14-20.07,177.41-23.3,264.1-.49,13-1,25.74-1.47,38.16l-2-.22c.5-12.42,1-25.17,1.46-38.14,3.24-86.91,6.91-185.42,23.41-265,4.21-20.28,9.38-41.34,18.66-58,7.35-13.17,19.59-25.26,31.94-19.76,9.11,4.06,16.67,17.43,20.22,35.75,2.78,14.33,3,29.62,3.16,44.4l.06,4.83c.78,53.38,14.14,245.13,22.49,296Z" transform="translate(0)"/><path class="cls-5" d="M238.74,447.56l-2-.54c2.87-29.1,5.79-60.26,8.61-90.39s5.74-61.28,8.61-90.37c1.8-18.28,3.66-37.19,7-55.34,1.82-10.07,4.74-22.36,11.2-28,9-7.87,20.37,1.43,26.5,14.19,7,14.61,9.88,33,12.65,50.89.61,3.93,1.22,7.85,1.87,11.72,1.5,8.93,3.31,18.12,5.06,27,6.58,33.46,13.39,68,6.74,101.21-.53,2.62-1.14,5.21-1.75,7.8a126,126,0,0,0-2.83,14.65c-1.19,10.75,2.66,25.71,7.09,34.93l-1.57,2.08c-4.56-9.51-8.86-25.34-7.49-37.61a128.18,128.18,0,0,1,2.93-15.27c.6-2.53,1.2-5.06,1.71-7.64,6.45-32.11-.26-66.17-6.74-99.12-1.76-8.91-3.57-18.13-5.08-27.13-.66-3.89-1.27-7.84-1.88-11.79-2.72-17.5-5.53-35.59-12.28-49.65-5.63-11.7-15.95-20.35-24-13.32-5.8,5.07-8.51,16.57-10.22,26-3.25,17.94-5.1,36.74-6.89,54.92-2.87,29.08-5.79,60.22-8.61,90.34s-5.74,61.3-8.61,90.42" transform="translate(0)"/><path class="cls-5" d="M295.46,365.72a13.55,13.55,0,0,1-4.72-.86c-5.93-2.19-11.68-8.44-16.2-17.61-7.4-15-10.84-36.07-9.45-57.79,1.17-18.31,9.07-55.39,19.36-58,5-1.28,9.61,5.68,13.58,20.72,1.78,6.71,3.9,13.51,6,20.09,6.15,19.77,12.52,40.2,11,62.34-.42,6.37-1.75,15.37-5.67,22.06-3.42,5.84-8.56,9.09-13.9,9.09m-28.37-75.91c-1.34,20.84,1.94,41,9,55.33,4.24,8.6,9.6,14.44,15.09,16.47,6.23,2.29,12.8-.57,16.74-7.3,3.53-6,4.73-14.25,5.11-20.11,1.4-21.13-4.82-41.11-10.84-60.44-2.06-6.62-4.19-13.47-6-20.28-2.45-9.27-6.41-20.06-11.43-18.76-8.21,2.11-16.38,34.88-17.67,55.09" transform="translate(0)"/><path class="cls-5" d="M284.28,298.05a4.9,4.9,0,0,1-3.6-2c-2.35-2.7-4-7.74-4-12.54a64.53,64.53,0,0,1,1.79-14c.47-2.31.95-4.69,1.28-7l2,.75c-.35,2.51-.85,5-1.33,7.35a59.82,59.82,0,0,0-1.68,12.89c.05,3.73,1.36,7.79,3.17,9.88.83.95,2.14,1.93,3.65,1,1.69-1,2.73-3.79,3.19-5.4,2.56-8.79.06-20.84-5.23-25.28l.91-3c6.32,5.31,9.18,19.19,6.13,29.71-.73,2.52-2.08,5.8-4.34,7.1a3.67,3.67,0,0,1-1.85.53" transform="translate(0)"/><path class="cls-5" d="M431.13,447.45c-.76-65.74-14.34-130.28-27.47-192.69-7.93-37.71-16.14-76.71-21.44-115.62-4.23-31-4.76-63.19-5.28-94.34-.23-14.15-.47-28.79-1.06-43.12l2-.22c.59,14.39.83,29.06,1.07,43.25.51,31,1,63,5.22,93.69,5.29,38.73,13.47,77.64,21.39,115.26,13.18,62.66,26.81,127.46,27.58,193.72Z" transform="translate(0)"/><path class="cls-5" d="M437.32,237.62c-3.1,0-5.35-4.71-6.8-8.34C405.17,165.85,389.83,87.15,386.15,1.69l2-.24c3.65,84.89,18.88,163,44,226,1.24,3.11,3.17,7.19,5.45,6.82,2.89-.49,3.89-7.37,4.22-11.43,2.63-31.92,3.12-64.28,3.26-88.9.24-43.48-.61-87.68-1.43-130.42l2-.11c.82,42.78,1.67,87,1.43,130.56-.14,24.72-.64,57.22-3.28,89.33-.72,8.68-2.85,13.75-6,14.29a3,3,0,0,1-.52,0" transform="translate(0)"/><path class="cls-5" d="M425.63,175.83a2.1,2.1,0,0,1-1-.27c-1.15-.64-1.87-2.26-2.42-3.76-4.69-12.67-5.65-29.16-2.52-43.05l1.88,1.16c-2.92,13-2,28.34,2.35,40.14a4.84,4.84,0,0,0,1.35,2.35c.75.42,1.68-.48,2.33-1.31,3.61-4.55,5.43-12.82,4.42-20.1s-4.82-13.47-9.28-15l.41-3.26c5.29,1.85,9.64,8.9,10.83,17.54s-.88,18.1-5.17,23.5c-1.26,1.61-2.33,2.09-3.15,2.09" transform="translate(0)"/><path class="cls-5" d="M375,447.47l-2-.11c.5-23.22.08-46.87-.33-69.75C371.53,314.83,370.37,250,364.2,187c-1.53-15.68-3.45-31.87-5.31-47.53-5.39-45.46-11-92.47-8.76-138l2,.26c-2.18,45.06,3.37,91.84,8.73,137.07,1.86,15.69,3.78,31.92,5.32,47.64,6.19,63.23,7.35,128.22,8.48,191.06.4,23,.83,46.68.32,70" transform="translate(0)"/><path class="cls-5" d="M126.13,446.54l-2-.38c5.62-82.08,20.39-160.74,43.91-233.79,3.57-11.07,7.38-22.15,11.08-32.87,7.2-20.9,14.65-42.52,20.5-64.9,9.42-36.06,13-79.26,9.43-112.74l2-.58c3.68,34.09,0,78-9.56,114.65-5.9,22.55-13.37,44.24-20.6,65.22-3.69,10.7-7.5,21.76-11.05,32.79-23.07,71.65-38.17,152.08-43.68,232.6" transform="translate(0)"/><path class="cls-5" d="M167.29,447.47c-5.84-88.28,3.39-180.24,26-258.92,1.8-6.28,3.72-12.59,5.57-18.7,4.78-15.75,9.73-32,13.1-49,7.1-35.59,7.48-75.08,7.25-119.3l2,0c.24,44.52-.15,84.3-7.34,120.38-3.43,17.16-8.4,33.56-13.22,49.42-1.84,6.09-3.75,12.39-5.55,18.63-22.44,78.14-31.6,169.46-25.8,257.13Z" transform="translate(0)"/><path class="cls-5" d="M224.32,447.86l-1.95-.79c3.46-23.58,0-49-3.29-73.62-2.36-17.5-4.8-35.6-4.8-53.09,0-5.41.23-10.95.44-16.31.55-13.6,1.11-27.67-2-40.14-1.1-4.4-2.44-7.12-4.09-8.32-5-3.66-9.77,7.48-11.56,13.87C182,323.29,182,392,182,447.29h-2c0-55.58,0-124.74,15.32-179.24,3-10.66,8.54-19.6,14.18-15.52,2.16,1.56,3.84,4.87,5.14,10.11,3.28,13.18,2.71,27.65,2.15,41.63-.22,5.31-.44,10.79-.44,16.09,0,17.12,2.42,35,4.75,52.36,3.37,25,6.85,50.8,3.28,75.14" transform="translate(0)"/><path class="cls-5" d="M147.41,175.83c-1.87,0-3.54-1.63-4.95-3.25-9.47-10.94-16-28-18-46.68-1.62-15.6,0-31.44,1.48-46.75,1-10.45,2.12-21.26,2.16-31.86.07-19.91-1.26-34.64-4.08-45L125.87.89c2.94,10.84,4.33,26,4.26,46.42,0,10.86-1.14,21.81-2.19,32.38-1.5,15-3,30.6-1.48,45.64,1.86,17.86,8.11,34.08,17.15,44.51,1.25,1.45,2.62,2.82,4,2.66s2.74-1.83,3.87-3.41c12.46-17.46,22.21-43.63,28.19-75.67C184.77,66,186.88,34,188.74,5.73L189,1.39l2,.36-.29,4.35c-1.88,28.4-4,60.59-9.17,88.31-6.1,32.65-16.06,59.35-28.81,77.22-1.38,1.94-3,4-5.06,4.19h-.29" transform="translate(0)"/><path class="cls-5" d="M50.24,114.9a19.92,19.92,0,0,1-9.06-2.15c-7.73-3.87-14.92-13.29-20.24-26.54C16,73.81,13,59.44,10.8,47l-.71-3.93C7.58,29.46,4.46,12.49,8.3.77l1.76,1.6C6.63,12.85,9.73,29.77,12,42.13l.73,4c2.17,12.17,5,26.24,9.88,38.27C27.67,97,34.48,105.92,41.76,109.57c9,4.5,19.89,1.32,29.17-8.49,7.55-8,14.15-19.8,20.77-37.18,8-21.06,12.21-43.17,11.79-62.27l2-.12c.43,19.76-3.87,42.55-12.1,64.17C86.61,83.49,79.82,95.63,72,103.89c-6.82,7.22-14.5,11-21.77,11" transform="translate(0)"/><path class="cls-5" d="M51.55,57.84c-7.12,0-14.39-6.91-19.16-18.31-4.62-11-6.48-24.32-7.68-35.87l2-.57c1.16,11.19,2.95,24,7.34,34.54C38.61,48.56,45.62,55,52.32,54.48c6.23-.5,12.51-7.2,16.4-17.5,2.91-7.7,4.83-19.66,5.69-35.56l2,.3c-.89,16.42-2.91,28.88-6,37-4.23,11.2-11.13,18.51-18,19.06l-.87,0" transform="translate(0)"/><path class="cls-5" d="M1.63,281.57H1.4v-3.33c10,.12,20.73-6.65,30.23-19,8.84-11.52,15.83-26.44,22.07-40.84C85.84,144.25,103.92,59.32,113.43,1.13l1.94.88c-9.55,58.45-27.72,143.78-60,218.32-6.32,14.6-13.43,29.74-22.46,41.51C23.1,274.57,12,281.57,1.63,281.57" transform="translate(0)"/><path class="cls-5" d="M11.38,386.27A19.94,19.94,0,0,1,0,382.74l.76-3.08c8.44,5.71,19,3.95,31.49-5.22,37.53-27.64,65-95.49,70.06-172.85.44-6.83,2.26-20.53,4.55-37.88,6-45.19,16-120.81,12.6-161.91l2-.46c3.43,41.7-6.23,114.75-12.63,163.08-2.28,17.25-4.08,30.87-4.52,37.53-5.1,78.52-33.07,147.42-71.24,175.54-7.94,5.85-15.19,8.78-21.68,8.78" transform="translate(0)"/><path class="cls-5" d="M56.17,447.76l-.89-3c14-11.6,26.86-30.7,37.11-55.24,8.49-20.32,15.55-44.92,21.6-75.21l1.9,1.05c-6.1,30.6-13.25,55.48-21.85,76.06-10.45,25-23.54,44.47-37.87,56.32" transform="translate(0)"/><path class="cls-5" d="M566.17,446.34l-4.61-58.53c-1.3-16.52-2.64-33.59-5.19-50-5.12-32.82-15.15-63.37-24.85-92.93-3.4-10.36-6.92-21.08-10.18-31.75C497.9,136.42,485.43,65.85,484.28,3.39l2-.1c1.15,62,13.54,132.06,36.85,208.36,3.24,10.63,6.76,21.32,10.15,31.67,9.76,29.73,19.86,60.47,25,93.69,2.58,16.57,3.94,33.75,5.24,50.37l4.61,58.53Z" transform="translate(0)"/><path class="cls-5" d="M548.07,190.41a3.21,3.21,0,0,1-.63-.06c-8.87-1.78-16.35-9.21-22.22-22.07C506.75,127.82,508.49,45.4,512.43,3.09l2,.51c-3.9,41.8-5.67,123.09,12.4,162.66,5.53,12.13,12.55,19.12,20.85,20.78,6,1.22,23.21-21.34,70.6-186.19l1.81,1.44c-35.89,124.86-60.11,188.12-72,188.12" transform="translate(0)"/><path class="cls-5" d="M564.4,49.78a18.61,18.61,0,0,1-8.61-2.18c-13.45-6.91-21.32-27.95-21.17-44.3l2,.05c-.14,15.12,7.21,34.62,19.75,41.07,9.13,4.7,27.37,5.25,47-43.77L605,2.49c-12.27,30.73-26.67,47.29-40.6,47.29" transform="translate(0)"/><path class="cls-5" d="M465.26,447.53c-3.82-93.51-1.21-174.71,8-248.22.94-7.53,3-9.32,4.56-9.5,1.4-.18,2.61,1,3.71,2.32,13.77,16.16,21.18,42.17,28.35,67.32q1.38,4.82,2.75,9.58c3.19,11,6.67,22,10,32.57,5.32,16.83,10.83,34.23,15.37,52.06,8.78,34.52,12.22,64.78,10.51,92.52l-2-.34c1.68-27.16-1.71-56.89-10.36-90.89-4.5-17.69-10-35-15.3-51.8-3.37-10.65-6.85-21.66-10.06-32.68-.92-3.17-1.83-6.38-2.75-9.59-7.06-24.77-14.36-50.38-27.7-66-.74-.87-1.57-1.82-2.41-1.7-1.66.18-2.42,4.37-2.73,6.85-9.15,73.21-11.75,154.11-7.94,247.31Z" transform="translate(0)"/><path class="cls-5" d="M683.05,447.5l-2-.17c8.22-260.83-10.93-280.72-19.11-289.21-9.59-10-22.17-12.22-32.84-5.88-16.23,9.63-28,36.51-36.07,82.17-11.55,65.66-15.48,140.83-11,211.67l-2,.35c-4.46-71.27-.51-146.89,11.12-212.95,8.23-46.76,20.44-74.36,37.31-84.37,11.24-6.67,24.49-4.3,34.59,6.19,9.19,9.55,28.32,29.42,20,292.2" transform="translate(0)"/><path class="cls-5" d="M678.36,447.54l-2-.25c5.53-118.94-.78-153.27-7-161.13-1.62-2-3.4-2.4-5.44-1.15-5.36,3.27-10.48,9.88-15.64,20.19-20,40-23.9,96.41-25.06,141.08l-2-.14c1.18-45.2,5.13-102.31,25.53-143.06,5.39-10.79,10.78-17.72,16.49-21.21,2.69-1.64,5.16-1.09,7.34,1.64,9.68,12.15,12.31,67.34,7.82,164" transform="translate(0)"/><path class="cls-5" d="M653.53,376.34a3.83,3.83,0,0,1-2.63-1.07c-1.12-1-2-2.72-2.85-5.34a45.6,45.6,0,0,1-.21-25.19c2.3-7.82,6.95-13.72,12.14-15.4l.38,3.27c-4.58,1.48-8.69,6.69-10.72,13.59a40.23,40.23,0,0,0,.19,22.19,9.11,9.11,0,0,0,2,4c2.2,2,5.06-1,5.89-2,7-8.27,9-26.46,4.17-38.2l1.66-1.87c5.49,13.38,3.31,33.36-4.67,42.78-1.82,2.14-3.7,3.25-5.39,3.25" transform="translate(0)"/><path class="cls-5" d="M573.77,445.43l-1.93-.9c1.65-9.69,1.88-37.12,2.16-71.86.83-100.51,2.22-268.73,38.62-320.88C630.39,26.34,647.11,13.52,670,0l.67,3.14c-23.2,13.71-39.11,25.93-56.73,51.18-35.71,51.16-37.1,218.44-37.92,318.39-.3,36.35-.52,62.62-2.24,72.72" transform="translate(0)"/><path class="cls-5" d="M762.07,447.79c-14.5-40.77-23.52-94.6-25.41-151.57C734.3,224.93,737,91.73,781.22.53l1.57,2.08C738.94,93,736.32,225.23,738.66,296c1.87,56.45,10.8,109.75,25.14,150.06Z" transform="translate(0)"/><path class="cls-5" d="M763.08,351a.74.74,0,0,1-.24-.05,1.27,1.27,0,0,1-.64-.82c-15.39-46.8-20.14-104.55-13-158.44l.07-.52c4.6-34.88,9.75-55.07,15.31-60,1.61-1.44,3.24-1.63,4.87-.58,7.07,4.55,2.92,24.5-.74,42.09-2.06,9.87-4,19.2-3.57,23.79.56,6,2.26,11.5,4.06,17.28.68,2.17,1.35,4.33,2,6.53,6.56,23.54,5.83,50.55,5.18,74.38-.61,22.45-2.56,44.78-12.69,56.08a.8.8,0,0,1-.57.28m4.3-217.76a2.82,2.82,0,0,0-1.86.84c-3.45,3.07-8.73,15.6-14.3,57.81l-.07.52c-6.94,52.48-2.46,108.66,12.28,154.47,8.61-10.82,10.34-31.52,10.91-52.39.63-23.45,1.35-50-5-72.83-.6-2.15-1.26-4.27-1.92-6.4-1.8-5.76-3.66-11.71-4.27-18.31-.5-5.4,1.43-14.66,3.66-25.38,3.2-15.37,7.18-34.51,1.91-37.89a2.4,2.4,0,0,0-1.33-.44" transform="translate(0)"/><path class="cls-5" d="M711.5,188.32h-.29c-1.58-.15-2.92-1.58-4-2.95-10.18-12.69-14-34.72-16.06-50.19-3.26-24.87-3.32-51.81-3.38-77.86,0-17.9-.09-36.41-1.19-53.79l2-.35c1.11,17.55,1.15,36.14,1.2,54.12.06,25.88.12,52.64,3.33,77.17,1.95,14.95,5.66,36.22,15.31,48.24.86,1.07,1.88,2.18,2.92,2.28,2.44.26,4.07-4.55,4.88-7.41,3.18-11.31,4.82-23.82,6.41-35.91,1.09-8.3,2.22-16.89,3.84-25.11C730.12,97.94,736.3,81,742.27,64.6c3.59-9.86,6.36-21,9-31.73s5.5-22.1,9.17-32.16l1.71,1.72c-3.58,9.85-6.35,21-9,31.71s-5.5,22.11-9.17,32.18c-5.92,16.23-12,33-15.63,51.26-1.59,8.07-2.71,16.57-3.79,24.79-1.61,12.27-3.28,25-6.56,36.61-1.72,6.12-4,9.34-6.51,9.34" transform="translate(0)"/><path class="cls-5" d="M705.3,132.06a1,1,0,0,1-.65-.26A5.74,5.74,0,0,1,703.3,129c-1.74-6.41-5.47-30.76-1.11-38,1.53-2.54,3.74-2.75,6.56-.62,2.55,1.92,4,5.83,4.28,11.3.53,11.24-4.23,27-6.7,29.74a1.46,1.46,0,0,1-1,.57m0-39.72a1.91,1.91,0,0,0-1.69,1.09c-3.25,5.37-.25,27.71,1.52,34.24h0a6.15,6.15,0,0,0,.26.85c1.52-2,5.57-14.38,5.67-24.59.05-5.32-1-8.83-3.14-10.45a4.63,4.63,0,0,0-2.62-1.14" transform="translate(0)"/><path class="cls-5" d="M736.09,447.49c-4.88-23.12-6-47.83-7.07-71.73-.67-15-1.37-30.45-3-45.39l-.73-6.89c-2.89-27.21-5.87-55.31-16.18-76.27-16.33,62.4-24.28,131.14-23,199l-2,.11c-1.3-69.23,6.93-139.39,23.82-202.88a1.27,1.27,0,0,1,.77-1c.32-.09.67.12.9.55,11.52,21.85,14.65,51.36,17.68,79.9l.73,6.88c1.63,15.11,2.34,30.68,3,45.73,1.07,23.69,2.17,48.17,7,70.88Z" transform="translate(0)"/><path class="cls-5" d="M860.19,448.37c-30.7-44.82-52.7-123.18-54.74-195-1.62-56.81,2.83-102.94,13.6-141,2.76-9.73,6.63-19.26,10.37-28.47,5.46-13.45,11.11-27.37,13.43-42.22,1.88-12-.4-28.45-3.49-39.4L841.18.86c3,10.66,5.75,28,3.61,41.66-2.4,15.4-8.15,29.55-13.71,43.24-3.7,9.11-7.52,18.53-10.21,28-10.63,37.57-15,83.19-13.42,139.45,2,70.95,23.75,148.36,54.07,192.63Z" transform="translate(0)"/><path class="cls-5" d="M884.26,368.12c-10.83,0-24.69-19.45-30.15-30-16.52-32-20.53-75.66-22.41-118.09-1.15-26-2-56,2.61-84.76,2.55-16,7-32.13,11.24-47.75,7.65-28,15.56-56.87,13-85.7l2-.48c2.64,29.79-5.39,59.16-13.16,87.56-4.24,15.49-8.62,31.51-11.13,47.23-4.52,28.22-3.68,58-2.55,83.66,1.85,41.86,5.79,84.91,21.93,116.16,6.7,13,23.17,34.37,32.7,27.55l.8,3.06a8.23,8.23,0,0,1-4.87,1.57" transform="translate(0)"/><path class="cls-5" d="M862.24,290.63a7.31,7.31,0,0,1-4.47-1.61c-11.7-8.8-15.49-52.16-16.58-70.39h0c-1.57-26.47,2-51.06,10.12-69.23,3.28-7.35,6.66-11.73,10.35-13.4,7.51-3.37,15,5.07,18.49,15.15,3.64,10.45,4.24,22.9,4.76,33.88l1.67,34.76c.9,18.49,1.21,37.7-5.44,51.56-2.55,5.33-5.9,9.29-9.13,13.13-3.45,4.1-6.72,6.15-9.76,6.15M843.18,218.3c.83,13.78,4.37,59.37,15.42,67.69,3.52,2.64,7.64,1.24,12.23-4.22,3.12-3.7,6.35-7.54,8.73-12.5,6.2-12.91,5.91-30.65,5-49.21L882.9,185.3c-.51-10.63-1.09-22.68-4.5-32.49-3-8.75-9.76-16.5-16.22-13.59-3.24,1.46-6.27,5.43-9.27,12.16-7.8,17.51-11.26,41.28-9.73,66.92" transform="translate(0)"/><path class="cls-5" d="M864.29,233.63a.75.75,0,0,1-.53-.25l-6.31-6.45,1-2.84,5.92,6c3-1.75,5.35-5.4,6.17-9.65.93-4.85-.35-10.39-2.87-12.36a3.23,3.23,0,0,0-4.36.46,7.07,7.07,0,0,0-2.08,4.66l-2-.39a10.83,10.83,0,0,1,3.1-7.19c2-1.8,4.33-2,6.19-.56,3.39,2.66,5.15,10,3.92,16.4-1,5.47-4.08,10.08-7.92,12a.6.6,0,0,1-.29.08" transform="translate(0)"/></g></g></g></g></g></svg>